<svg width="267" height="301" viewBox="0 0 267 301" fill="none" xmlns="http://www.w3.org/2000/svg">
<g clip-path="url(#clip0_5_4)">
<path d="M-49.1924 262.454C-27.4183 277.141 -2.96455 287.395 22.7726 292.631C48.5097 297.867 75.0261 297.983 100.808 292.972C126.59 287.96 151.132 277.92 173.034 263.423C194.935 248.927 213.767 230.259 228.454 208.485C243.141 186.711 253.395 162.257 258.631 136.52C263.867 110.783 263.983 84.2661 258.972 58.4842C253.96 32.7024 243.92 8.16012 229.423 -13.7414C214.927 -35.6429 196.259 -54.4746 174.485 -69.1615L129.845 -2.97982C142.928 5.84481 154.144 17.1599 162.855 30.3195C171.565 43.4791 177.598 58.2254 180.609 73.7165C183.62 89.2075 183.55 105.14 180.404 120.604C177.258 136.068 171.097 150.762 162.272 163.845C153.447 176.928 142.132 188.145 128.973 196.855C115.813 205.565 101.067 211.598 85.5758 214.609C70.0847 217.62 54.1522 217.55 38.688 214.404C23.2238 211.258 8.53068 205.097 -4.55238 196.272L-49.1924 262.454Z" fill="#B3D771"/>
</g>
<defs>
<clipPath id="clip0_5_4">
<rect width="267" height="301" fill="white"/>
</clipPath>
</defs>
</svg>
