<svg width="125" height="250" viewBox="0 0 125 250" fill="none" xmlns="http://www.w3.org/2000/svg">
<path d="M125 0C108.585 0 92.3303 3.23322 77.1646 9.51506C61.9989 15.7969 48.219 25.0043 36.6116 36.6117C25.0043 48.219 15.7969 61.9989 9.51505 77.1646C3.23322 92.3303 -2.67438e-06 108.585 0 125C2.67438e-06 141.415 3.23323 157.67 9.51507 172.835C15.7969 188.001 25.0043 201.781 36.6117 213.388C48.219 224.996 61.9989 234.203 77.1646 240.485C92.3303 246.767 108.585 250 125 250L125 200.107C115.137 200.107 105.37 198.164 96.258 194.389C87.1456 190.615 78.8659 185.083 71.8916 178.108C64.9173 171.134 59.385 162.854 55.6106 153.742C51.8361 144.63 49.8934 134.863 49.8934 125C49.8934 115.137 51.8361 105.37 55.6106 96.258C59.385 87.1456 64.9173 78.8659 71.8916 71.8916C78.8659 64.9173 87.1456 59.385 96.2579 55.6106C105.37 51.8361 115.137 49.8934 125 49.8934V0Z" fill="#23CDB4"/>
</svg>
